<mxfile host="app.diagrams.net" modified="2023-11-30T11:27:31.906Z" agent="Mozilla/5.0 (Windows NT 10.0; Win64; x64) AppleWebKit/537.36 (KHTML, like Gecko) Chrome/119.0.0.0 Safari/537.36" version="22.1.5" etag="i97SCVEP68vjC5hkVz7T" type="github">
  <diagram name="PÃ¡gina-1" id="AeczPC39cbShhOwS89Mg">
    <mxGraphModel>
      <root>
        <mxCell id="0" />
        <mxCell id="1" parent="0" />
      </root>
    </mxGraphModel>
  </diagram>
</mxfile>
